{"accessors":[{"bufferView":0,"byteOffset":0,"componentType":5126,"count":28,"max":[0.5,2.5,0.5],"min":[-0.5,0,-0.5],"normalized":false,"type":"VEC3"},{"bufferView":1,"byteOffset":0,"componentType":5126,"count":28,"max":[1,0,-0.000015,1],"min":[1,0,-0.000015,1],"normalized":false,"type":"VEC4"},{"bufferView":2,"byteOffset":0,"componentType":5126,"count":28,"max":[0,1,1],"min":[-0.000065,-1,-0.000015],"normalized":false,"type":"VEC3"},{"bufferView":3,"byteOffset":0,"componentType":5126,"count":28,"max":[1,0.5],"min":[0,0],"normalized":false,"type":"VEC2"},{"bufferView":4,"byteOffset":0,"componentType":5125,"count":42,"max":[27],"min":[0],"normalized":false,"type":"SCALAR"},{"bufferView":5,"byteOffset":0,"componentType":5126,"count":34,"max":[0.5,2.5,0.5],"min":[-0.5,0,-0.5],"normalized":false,"type":"VEC3"},{"bufferView":6,"byteOffset":0,"componentType":5126,"count":34,"max":[1,0,1,1],"min":[-0.707193,-0.000108,-0.000015,1],"normalized":false,"type":"VEC4"},{"bufferView":7,"byteOffset":0,"componentType":5126,"count":34,"max":[0,1,1],"min":[-1,-1,-0.000151],"normalized":false,"type":"VEC3"},{"bufferView":8,"byteOffset":0,"componentType":5126,"count":34,"max":[1,0.5],"min":[0,0],"normalized":false,"type":"VEC2"},{"bufferView":9,"byteOffset":0,"componentType":5125,"count":48,"max":[33],"min":[0],"normalized":false,"type":"SCALAR"},{"bufferView":10,"byteOffset":0,"componentType":5126,"count":12,"max":[0.5,2.5,0.5],"min":[-0.5,0,-0.5],"normalized":false,"type":"VEC3"},{"bufferView":11,"byteOffset":0,"componentType":5126,"count":12,"max":[1,0,-0.000015,1],"min":[1,0,-0.000015,1],"normalized":false,"type":"VEC4"},{"bufferView":12,"byteOffset":0,"componentType":5126,"count":12,"max":[0,1,-0.000015],"min":[0,-1,-0.000015],"normalized":false,"type":"VEC3"},{"bufferView":13,"byteOffset":0,"componentType":5126,"count":12,"max":[1,0.5],"min":[0,0],"normalized":false,"type":"VEC2"},{"bufferView":14,"byteOffset":0,"componentType":5125,"count":18,"max":[11],"min":[0],"normalized":false,"type":"SCALAR"},{"bufferView":15,"byteOffset":0,"componentType":5126,"count":20,"max":[0.5,2.5,0.5],"min":[-0.5,0,-0.5],"normalized":false,"type":"VEC3"},{"bufferView":16,"byteOffset":0,"componentType":5126,"count":20,"max":[1,0,0.707107,1],"min":[0.707107,-0.000108,-0.000015,1],"normalized":false,"type":"VEC4"},{"bufferView":17,"byteOffset":0,"componentType":5126,"count":20,"max":[0,1,0.577245],"min":[-0.577403,-1,-0.000015],"normalized":false,"type":"VEC3"},{"bufferView":18,"byteOffset":0,"componentType":5126,"count":20,"max":[1,0.5],"min":[0,0],"normalized":false,"type":"VEC2"},{"bufferView":19,"byteOffset":0,"componentType":5125,"count":39,"max":[19],"min":[0],"normalized":false,"type":"SCALAR"}],"asset":{"generator":"Godot Engine v4.0.3.stable.official@5222a99f5d38cd5346254cefed8f65315bca4fcb","version":"2.0"},"bufferViews":[{"buffer":0,"byteLength":336,"byteOffset":0},{"buffer":0,"byteLength":448,"byteOffset":336},{"buffer":0,"byteLength":336,"byteOffset":784},{"buffer":0,"byteLength":224,"byteOffset":1120},{"buffer":0,"byteLength":168,"byteOffset":1344},{"buffer":0,"byteLength":408,"byteOffset":1512},{"buffer":0,"byteLength":544,"byteOffset":1920},{"buffer":0,"byteLength":408,"byteOffset":2464},{"buffer":0,"byteLength":272,"byteOffset":2872},{"buffer":0,"byteLength":192,"byteOffset":3144},{"buffer":0,"byteLength":144,"byteOffset":3336},{"buffer":0,"byteLength":192,"byteOffset":3480},{"buffer":0,"byteLength":144,"byteOffset":3672},{"buffer":0,"byteLength":96,"byteOffset":3816},{"buffer":0,"byteLength":72,"byteOffset":3912},{"buffer":0,"byteLength":240,"byteOffset":3984},{"buffer":0,"byteLength":320,"byteOffset":4224},{"buffer":0,"byteLength":240,"byteOffset":4544},{"buffer":0,"byteLength":160,"byteOffset":4784},{"buffer":0,"byteLength":156,"byteOffset":4944}],"buffers":[{"byteLength":5100,"uri":"dorm_tileset0.bin"}],"images":[{"uri":"textures%2FMaterial001_albedo.png"},{"uri":"textures%2FMaterial001_normal.png"}],"materials":[{"doubleSided":true,"extensions":{},"name":"Material001","normalTexture":{"index":1,"scale":1},"pbrMetallicRoughness":{"baseColorFactor":[0.999999582767487,0.999999582767487,0.999999582767487,1],"baseColorTexture":{"index":0},"metallicFactor":0,"roughnessFactor":1}}],"meshes":[{"extras":{"targetNames":[]},"primitives":[{"attributes":{"NORMAL":2,"POSITION":0,"TANGENT":1,"TEXCOORD_0":3},"indices":4,"material":0,"mode":4}]},{"extras":{"targetNames":[]},"primitives":[{"attributes":{"NORMAL":7,"POSITION":5,"TANGENT":6,"TEXCOORD_0":8},"indices":9,"material":0,"mode":4}]},{"extras":{"targetNames":[]},"primitives":[{"attributes":{"NORMAL":12,"POSITION":10,"TANGENT":11,"TEXCOORD_0":13},"indices":14,"material":0,"mode":4}]},{"extras":{"targetNames":[]},"primitives":[{"attributes":{"NORMAL":17,"POSITION":15,"TANGENT":16,"TEXCOORD_0":18},"indices":19,"material":0,"mode":4}]}],"nodes":[{"children":[1],"extensions":{},"name":"dorm_tileset"},{"children":[2,5,8,11],"extensions":{},"name":"dorm_tileset2"},{"children":[3],"extensions":{},"mesh":0,"name":"dorm-wall"},{"children":[4],"extensions":{},"name":"StaticBody3D"},{"extensions":{},"name":"CollisionShape3D"},{"children":[6],"extensions":{},"mesh":1,"name":"dorm-corner-in","translation":[4,0,0]},{"children":[7],"extensions":{},"name":"StaticBody3D2"},{"extensions":{},"name":"CollisionShape3D2"},{"children":[9],"extensions":{},"mesh":2,"name":"dorm-floor","translation":[2,0,0]},{"children":[10],"extensions":{},"name":"StaticBody3D3"},{"extensions":{},"name":"CollisionShape3D3"},{"children":[12],"extensions":{},"mesh":3,"name":"dorm-corner-out","translation":[-2,0,0]},{"children":[13],"extensions":{},"name":"StaticBody3D4"},{"extensions":{},"name":"CollisionShape3D4"}],"samplers":[{"magFilter":9728,"minFilter":9986,"wrapS":10497,"wrapT":10497}],"scene":0,"scenes":[{"nodes":[0]}],"textures":[{"sampler":0,"source":0},{"sampler":0,"source":1}]}